[IMG]http://img26.imageshack.us/img26/6948/happpyy.jpg[/IMG]
[code]
Happy Feet 2.2011.DVDRip.XViD.AC3-26k
 
http://www.imdb.com/title/tt1402488/

Plot:
Mumble's son, Erik, is struggling to realize his talents in the Emperor Penguin world. Meanwhile, 

Mumble and his family 
and friends discover a new threat their home -- one that will take everyone working together to save 

them

Sources - Happy Feet Two 2011 DVDR-BORGATA...Thanks :P

Format                                   : AVI
Format/Info                              : Audio Video Interleave
File size                                : 1.66 GiB
Duration                                 : 1h 39mn
Overall bit rate                         : 2 391 Kbps

Video
ID                                       : 0
Format                                   : MPEG-4 Visual
Format profile                           : Advanced Simple@L5
Format settings, BVOP                    : 1
Format settings, QPel                    : No
Format settings, GMC                     : No warppoints
Format settings, Matrix                  : Default (H.263)
Codec ID                                 : XVID
Codec ID/Hint                            : XviD
Duration                                 : 1h 39mn
Bit rate                                 : 2 000 Kbps
Width                                    : 720 pixels
Height                                   : 304 pixels
Display aspect ratio                     : 2.35:1
Frame rate                               : 23.976 fps
Color space                              : YUV
Chroma subsampling                       : 4:2:0
Bit depth                                : 8 bits
Scan type                                : Progressive
Compression mode                         : Lossy
Bits/(Pixel*Frame)                       : 0.381
Stream size                              : 1.39 GiB (84%)
Writing library                          : XviD 1.2.1 (UTC 2008-12-04)

Audio
ID                                       : 1
Format                                   : AC-3
Format/Info                              : Audio Coding 3
Mode extension                           : CM (complete main)
Codec ID                                 : 2000
Duration                                 : 1h 39mn
Bit rate mode                            : Constant
Bit rate                                 : 384 Kbps
Channel(s)                               : 6 channels
Channel positions                        : Front: L C R, Side: L R, LFE
Sampling rate                            : 48.0 KHz
Bit depth                                : 16 bits
Compression mode                         : Lossy
Stream size                              : 273 MiB (16%)
Alignment                                : Aligned on interleaves
Interleave, duration                     : 64 ms (1.53 video frames)
Interleave, preload duration             : 192 ms

Notes -
Crop, resize, slight denoise and sharpen.. enjoy... :)

Greetz:
Xtreme 

Encode|FYA|ILLUMANTI|CM8|RX|VISI​ON|HDSCENE|xTriLL|DTRG|CRYS|REMIX​HD|BIDA|RX|REFILL|INSPiRAL|SIC|HO​P

E|Anonymous|GooN
To all the people who have helped me  you know who you are

Anything to offer email us @: 26k@hushmail.me
[/code]
Screens:
[IMG]http://i.imgur.com/jEoaJ.png[/IMG]
[IMG]http://i.imgur.com/NEAGq.jpg[/IMG]
[IMG]http://img707.imageshack.us/img707/5392/70344738.png[/IMG]
[IMG]http://img534.imageshack.us/img534/8392/16208413.png[/IMG]
[IMG]http://img821.imageshack.us/img821/6458/70041279.png[/IMG]


[img]http://img851.imageshack.us/img851/5503/26ks.jpg[/img]
Thank you smallz for banner!